<svg fill="none" height="24" width="24" xmlns="http://www.w3.org/2000/svg"><path d="M11.406.132L.586 5.187a.42.42 0 00.001.764l10.905 5.018c.322.148.694.148 1.016 0l10.905-5.018a.42.42 0 00.002-.764L12.594.132a1.403 1.403 0 00-1.188 0z" fill="#8c30f5"/><path d="M23.415 11.676l-2.235-1.044a1.216 1.216 0 00-1.023-.003l-7.649 3.52a1.215 1.215 0 01-1.016 0l-7.65-3.52a1.216 1.216 0 00-1.022.003L.585 11.676a.42.42 0 00.002.764l10.905 5.017a1.21 1.21 0 001.016 0l10.905-5.017a.42.42 0 00.002-.764z" fill="#d6b1ff" opacity=".64"/><path d="M23.415 18.108l-2.235-1.044a1.215 1.215 0 00-1.023-.003l-7.649 3.519a1.215 1.215 0 01-1.016 0l-7.65-3.52a1.216 1.216 0 00-1.022.003L.585 18.108a.42.42 0 00.002.763l10.905 5.018c.322.148.694.148 1.016 0l10.905-5.018a.42.42 0 00.002-.763z" fill="#2ec5ce"/></svg>