<svg fill="none" height="48" width="229" xmlns="http://www.w3.org/2000/svg"><g stroke="#18191f" stroke-width="2"><circle cx="24" cy="24" r="23"/><path clip-rule="evenodd" d="M20.227 17.2a.344.344 0 00-.335-.025.296.296 0 00-.176.266V30.56c0 .113.068.216.176.266a.342.342 0 00.335-.025l9.643-6.559c.083-.056.131-.146.131-.24s-.048-.185-.13-.241z"/><path d="M56 23h80"/></g><path d="M144.98 29h3.262c.079 0 .243-.002.49-.007s.485-.021.714-.049c.812-.098 1.5-.38 2.065-.847s.994-1.06 1.288-1.778.441-1.505.441-2.359-.147-1.64-.441-2.359-.723-1.311-1.288-1.778-1.253-.749-2.065-.847c-.229-.028-.467-.044-.714-.049s-.411-.007-.49-.007h-3.262zm1.932-1.792v-6.496h1.33c.126 0 .296.002.511.007s.408.026.581.063c.425.084.777.282 1.057.595s.488.695.623 1.148c.14.453.21.931.21 1.435 0 .48-.068.947-.203 1.4-.131.453-.336.84-.616 1.162a1.844 1.844 0 01-1.071.616 4.091 4.091 0 01-.581.063c-.215.005-.385.007-.511.007zM157.059 29h1.904V18.92h-1.904zm9.811.21a5.66 5.66 0 001.491-.196c.485-.13.919-.327 1.302-.588.383-.266.686-.6.91-1.001.229-.406.343-.88.343-1.421 0-.509-.096-.929-.287-1.26a2.34 2.34 0 00-.721-.798 3.693 3.693 0 00-.91-.476c-.317-.117-.607-.21-.868-.28l-1.75-.476c-.215-.056-.425-.126-.63-.21s-.376-.194-.511-.329a.745.745 0 01-.203-.539c0-.238.082-.443.245-.616.168-.173.383-.303.644-.392.266-.093.548-.135.847-.126.457.014.877.15 1.26.406s.63.63.742 1.12l2.058-.35c-.243-.947-.714-1.673-1.414-2.177s-1.573-.763-2.618-.777c-.691-.005-1.321.103-1.89.322s-1.024.553-1.365 1.001-.511 1.01-.511 1.687c0 .48.079.88.238 1.197.163.313.366.565.609.756s.492.338.749.441c.261.103.49.182.686.238l2.618.77c.392.117.653.264.784.441a.917.917 0 01.196.567c0 .28-.096.516-.287.707-.187.191-.427.336-.721.434s-.597.147-.91.147c-.56 0-1.059-.156-1.498-.469s-.728-.758-.868-1.337l-1.988.294c.103.681.345 1.27.728 1.764.387.49.88.868 1.477 1.134.602.261 1.276.392 2.023.392zm11.911 0c1.157 0 2.128-.287 2.912-.861.788-.574 1.344-1.351 1.666-2.331l-1.918-.532c-.187.607-.502 1.08-.945 1.421-.444.34-1.015.511-1.715.511-.957 0-1.678-.313-2.163-.938-.481-.63-.721-1.47-.721-2.52s.24-1.888.721-2.513c.485-.63 1.206-.945 2.163-.945.7 0 1.271.17 1.715.511.443.336.758.81.945 1.421l1.918-.532c-.322-.98-.878-1.757-1.666-2.331-.784-.574-1.755-.861-2.912-.861-1.008 0-1.879.22-2.611.658a4.409 4.409 0 00-1.687 1.841c-.392.789-.588 1.706-.588 2.751s.196 1.962.588 2.751a4.409 4.409 0 001.687 1.841c.732.439 1.603.658 2.611.658zm12.445 0c1.008 0 1.876-.22 2.604-.658a4.351 4.351 0 001.687-1.841c.397-.789.595-1.706.595-2.751s-.198-1.962-.595-2.751a4.351 4.351 0 00-1.687-1.841c-.728-.439-1.596-.658-2.604-.658s-1.878.22-2.611.658a4.415 4.415 0 00-1.687 1.841c-.392.789-.588 1.706-.588 2.751s.196 1.962.588 2.751a4.415 4.415 0 001.687 1.841c.733.439 1.603.658 2.611.658zm0-1.792c-.957-.014-1.675-.331-2.156-.952-.476-.62-.714-1.456-.714-2.506s.238-1.892.714-2.527c.481-.635 1.199-.945 2.156-.931.961.014 1.68.331 2.156.952s.714 1.456.714 2.506-.238 1.892-.714 2.527-1.195.945-2.156.931zM201.255 29h2.842l3.08-10.08h-1.96l-2.562 8.288-2.52-8.288h-1.96zm8.977 0h6.58v-1.778h-4.676v-2.59h3.836v-1.778h-3.836v-2.156h4.676V18.92h-6.58zm10.258 0h1.904v-3.416h2.121L226.174 29h2.156l-1.82-3.738c.574-.261.996-.656 1.267-1.183.275-.532.413-1.141.413-1.827 0-.85-.208-1.573-.623-2.17-.416-.597-1.076-.966-1.981-1.106a3.065 3.065 0 00-.448-.042 7.274 7.274 0 00-.392-.014h-4.256zm1.904-5.194v-3.108h2.268c.098 0 .205.005.322.014.116.01.224.028.322.056.256.07.455.189.595.357.14.163.235.348.287.553.056.2.084.392.084.574s-.028.376-.084.581c-.052.2-.147.385-.287.553-.14.163-.339.28-.595.35a1.658 1.658 0 01-.322.056c-.117.01-.224.014-.322.014z" fill="#18191f"/></svg>