<svg fill="none" height="32" width="32" xmlns="http://www.w3.org/2000/svg"><g clip-rule="evenodd" fill-rule="evenodd"><path d="M0 16C0 7.163 7.163 0 16 0s16 7.163 16 16-7.163 16-16 16S0 24.837 0 16z" fill="#0b0d17" opacity=".1"/><path d="M16 7.467c-2.317 0-2.608.01-3.518.051-.908.042-1.528.186-2.07.397a4.178 4.178 0 00-1.513.984c-.474.474-.766.95-.984 1.511-.212.543-.356 1.163-.397 2.071-.04.91-.051 1.202-.051 3.52s.01 2.607.051 3.517c.042.908.186 1.528.397 2.07.218.562.51 1.038.984 1.513.474.474.95.767 1.511.985.543.21 1.163.354 2.072.396.91.041 1.2.052 3.518.052 2.318 0 2.607-.01 3.518-.052.908-.042 1.529-.185 2.072-.396a4.175 4.175 0 001.51-.985c.475-.475.767-.95.985-1.512.21-.543.354-1.163.397-2.071.04-.91.051-1.2.051-3.518s-.01-2.608-.051-3.519c-.043-.908-.187-1.528-.397-2.07a4.187 4.187 0 00-.985-1.512 4.17 4.17 0 00-1.51-.984c-.545-.211-1.165-.355-2.074-.397-.91-.041-1.2-.051-3.518-.051zm-.765 1.537h.766c2.278 0 2.548.009 3.448.05.832.038 1.284.177 1.584.293.399.155.682.34.981.639.299.298.484.583.639.98.116.301.256.753.293 1.585.041.9.05 1.17.05 3.447s-.009 2.548-.05 3.447c-.038.832-.177 1.284-.293 1.584-.155.398-.34.682-.639.98a2.64 2.64 0 01-.98.639c-.301.117-.753.256-1.585.294-.9.04-1.17.05-3.448.05-2.279 0-2.549-.01-3.448-.05-.832-.039-1.284-.178-1.585-.294a2.644 2.644 0 01-.981-.639 2.645 2.645 0 01-.639-.98c-.117-.3-.256-.752-.294-1.585-.04-.899-.049-1.17-.049-3.448s.008-2.548.05-3.447c.037-.832.176-1.284.293-1.585.155-.398.34-.682.639-.98.298-.3.583-.484.981-.64.3-.117.753-.255 1.585-.294.787-.035 1.092-.046 2.682-.048zm5.32 1.417a1.024 1.024 0 100 2.048 1.024 1.024 0 000-2.048zm-4.554 1.197a4.382 4.382 0 100 8.765 4.382 4.382 0 000-8.765zm0 1.538a2.844 2.844 0 110 5.689 2.844 2.844 0 010-5.69z" fill="#969bab"/></g></svg>