<svg fill="none" height="32" width="32" xmlns="http://www.w3.org/2000/svg"><g clip-rule="evenodd" fill-rule="evenodd"><path d="M0 16C0 7.163 7.163 0 16 0s16 7.163 16 16-7.163 16-16 16S0 24.837 0 16z" fill="#0b0d17" opacity=".1"/><path d="M22.668 10.5a2.167 2.167 0 011.509 1.549c.356 1.366.356 4.218.356 4.218s0 2.85-.356 4.218a2.167 2.167 0 01-1.51 1.549C21.338 22.4 16 22.4 16 22.4s-5.337 0-6.668-.366a2.167 2.167 0 01-1.509-1.55c-.356-1.366-.356-4.217-.356-4.217s0-2.852.356-4.218a2.167 2.167 0 011.51-1.55c1.33-.366 6.667-.366 6.667-.366s5.337 0 6.668.367zM14.4 13.867V19.2l4.267-2.667z" fill="#969bab"/></g></svg>